<mxfile host="Electron" modified="2023-05-27T15:46:10.759Z" agent="Mozilla/5.0 (Macintosh; Intel Mac OS X 10_15_7) AppleWebKit/537.36 (KHTML, like Gecko) draw.io/21.2.1 Chrome/112.0.5615.87 Electron/24.1.2 Safari/537.36" etag="eptvORLZi5wk1BXiOLlj" version="21.2.1" type="device">
  <diagram name="Page-1" id="H1nZVYqxkzLZFgEqRADx">
    <mxGraphModel dx="2570" dy="5350" grid="1" gridSize="10" guides="1" tooltips="1" connect="1" arrows="1" fold="1" page="1" pageScale="1" pageWidth="850" pageHeight="1100" math="0" shadow="0">
      <root>
        <mxCell id="0" />
        <mxCell id="1" parent="0" />
        <mxCell id="AsBp8XiL8Dx4Y6rQVwFH-4049" value="R, W: 128, H: 110, ORDER: 15, GC: {49, 37, 42, 12, 20, 5, 15, 32, 61, 22, 13, 9, 4, 36, 31} " style="text;html=1;strokeColor=none;fillColor=none;align=center;verticalAlign=middle;whiteSpace=wrap;rounded=0;flipV=1;" parent="1" vertex="1">
          <mxGeometry x="2710" width="1280" height="30" as="geometry" />
        </mxCell>
        <mxCell id="AsBp8XiL8Dx4Y6rQVwFH-6257" value="R, W: 128, H: 102, ORDER: 17, GC: {49, 37, 42, 12, 20, 5, 15, 32, 53, 8, 22, 21, 4, 28, 1, 24, 23} " style="text;html=1;strokeColor=none;fillColor=none;align=center;verticalAlign=middle;whiteSpace=wrap;rounded=0;flipV=1;" parent="1" vertex="1">
          <mxGeometry x="2690" y="1310" width="1280" height="30" as="geometry" />
        </mxCell>
        <mxCell id="AsBp8XiL8Dx4Y6rQVwFH-7724" value="R, W: 128, H: 119, ORDER: 18, GC: {51, 28, 22, 27, 17, 5, 10, 7, 11, 3, 4, 13, 32, 12, 20, 68, 8, 60} " style="text;html=1;strokeColor=none;fillColor=none;align=center;verticalAlign=middle;whiteSpace=wrap;rounded=0;flipV=1;" parent="1" vertex="1">
          <mxGeometry x="2740" y="2550" width="1280" height="30" as="geometry" />
        </mxCell>
        <mxCell id="AsBp8XiL8Dx4Y6rQVwFH-7819" value="R, W: 128, H: 83, ORDER: 18, GC: {36, 25, 39, 11, 14, 28, 12, 16, 47, 44, 9, 8, 4, 20, 17, 1, 19, 18} " style="text;html=1;strokeColor=none;fillColor=none;align=center;verticalAlign=middle;whiteSpace=wrap;rounded=0;flipV=1;" parent="1" vertex="1">
          <mxGeometry x="2760" y="3950" width="1280" height="30" as="geometry" />
        </mxCell>
        <mxCell id="AsBp8XiL8Dx4Y6rQVwFH-16661" value="R, W: 128, H: 88, ORDER: 20, GC: {37, 26, 23, 42, 4, 19, 11, 8, 6, 1, 5, 2, 9, 3, 7, 51, 16, 15, 46, 31} " style="text;html=1;strokeColor=none;fillColor=none;align=center;verticalAlign=middle;whiteSpace=wrap;rounded=0;flipV=1;" parent="1" vertex="1">
          <mxGeometry x="2730" y="4980" width="1280" height="30" as="geometry" />
        </mxCell>
        <mxCell id="AsBp8XiL8Dx4Y6rQVwFH-38891" value="R, W: 128, H: 106, ORDER: 22, GC: {43, 25, 23, 37, 9, 14, 18, 7, 11, 5, 6, 17, 33, 63, 15, 4, 13, 19, 10, 3, 36, 29} " style="text;html=1;strokeColor=none;fillColor=none;align=center;verticalAlign=middle;whiteSpace=wrap;rounded=0;flipV=1;" parent="1" vertex="1">
          <mxGeometry x="2720" y="6010" width="1280" height="30" as="geometry" />
        </mxCell>
        <mxCell id="AsBp8XiL8Dx4Y6rQVwFH-38937" value="R, W: 128, H: 122, ORDER: 22, GC: {39, 42, 28, 11, 47, 12, 7, 4, 25, 5, 3, 13, 10, 18, 34, 2, 16, 55, 23, 9, 41, 32} " style="text;html=1;strokeColor=none;fillColor=none;align=center;verticalAlign=middle;whiteSpace=wrap;rounded=0;flipV=1;" parent="1" vertex="1">
          <mxGeometry x="2740" y="7230" width="1280" height="30" as="geometry" />
        </mxCell>
        <mxCell id="AsBp8XiL8Dx4Y6rQVwFH-44097" value="R, W: 128, H: 105, ORDER: 23, GC: {24, 16, 14, 40, 2, 12, 8, 10, 32, 13, 9, 4, 5, 17, 34, 6, 28, 29, 22, 49, 7, 43, 36} " style="text;html=1;strokeColor=none;fillColor=none;align=center;verticalAlign=middle;whiteSpace=wrap;rounded=0;flipV=1;" parent="1" vertex="1">
          <mxGeometry x="2730" y="8620" width="1280" height="30" as="geometry" />
        </mxCell>
        <mxCell id="5mJC_CQfwRtNk9dnTt3o-1" value="" style="group;flipV=1;" vertex="1" connectable="0" parent="1">
          <mxGeometry x="2710" y="50" width="1280" height="1100" as="geometry" />
        </mxCell>
        <mxCell id="761dnnyQ54j-Cl0NHfQN-4050" value="49" style="rounded=0;whiteSpace=wrap;html=1;" parent="5mJC_CQfwRtNk9dnTt3o-1" vertex="1">
          <mxGeometry y="610" width="490" height="490" as="geometry" />
        </mxCell>
        <mxCell id="761dnnyQ54j-Cl0NHfQN-4051" value="37" style="rounded=0;whiteSpace=wrap;html=1;" parent="5mJC_CQfwRtNk9dnTt3o-1" vertex="1">
          <mxGeometry x="490" y="730" width="370" height="370" as="geometry" />
        </mxCell>
        <mxCell id="761dnnyQ54j-Cl0NHfQN-4052" value="42" style="rounded=0;whiteSpace=wrap;html=1;" parent="5mJC_CQfwRtNk9dnTt3o-1" vertex="1">
          <mxGeometry x="860" y="680" width="420" height="420" as="geometry" />
        </mxCell>
        <mxCell id="761dnnyQ54j-Cl0NHfQN-4053" value="12" style="rounded=0;whiteSpace=wrap;html=1;" parent="5mJC_CQfwRtNk9dnTt3o-1" vertex="1">
          <mxGeometry x="490" y="610" width="120" height="120" as="geometry" />
        </mxCell>
        <mxCell id="761dnnyQ54j-Cl0NHfQN-4054" value="20" style="rounded=0;whiteSpace=wrap;html=1;" parent="5mJC_CQfwRtNk9dnTt3o-1" vertex="1">
          <mxGeometry x="610" y="530" width="200" height="200" as="geometry" />
        </mxCell>
        <mxCell id="761dnnyQ54j-Cl0NHfQN-4055" value="5" style="rounded=0;whiteSpace=wrap;html=1;" parent="5mJC_CQfwRtNk9dnTt3o-1" vertex="1">
          <mxGeometry x="810" y="680" width="50" height="50" as="geometry" />
        </mxCell>
        <mxCell id="761dnnyQ54j-Cl0NHfQN-4056" value="15" style="rounded=0;whiteSpace=wrap;html=1;" parent="5mJC_CQfwRtNk9dnTt3o-1" vertex="1">
          <mxGeometry x="810" y="530" width="150" height="150" as="geometry" />
        </mxCell>
        <mxCell id="761dnnyQ54j-Cl0NHfQN-4057" value="32" style="rounded=0;whiteSpace=wrap;html=1;" parent="5mJC_CQfwRtNk9dnTt3o-1" vertex="1">
          <mxGeometry x="960" y="360" width="320" height="320" as="geometry" />
        </mxCell>
        <mxCell id="761dnnyQ54j-Cl0NHfQN-4058" value="61" style="rounded=0;whiteSpace=wrap;html=1;" parent="5mJC_CQfwRtNk9dnTt3o-1" vertex="1">
          <mxGeometry width="610" height="610" as="geometry" />
        </mxCell>
        <mxCell id="761dnnyQ54j-Cl0NHfQN-4059" value="22" style="rounded=0;whiteSpace=wrap;html=1;" parent="5mJC_CQfwRtNk9dnTt3o-1" vertex="1">
          <mxGeometry x="610" y="310" width="220" height="220" as="geometry" />
        </mxCell>
        <mxCell id="761dnnyQ54j-Cl0NHfQN-4060" value="13" style="rounded=0;whiteSpace=wrap;html=1;" parent="5mJC_CQfwRtNk9dnTt3o-1" vertex="1">
          <mxGeometry x="830" y="400" width="130" height="130" as="geometry" />
        </mxCell>
        <mxCell id="761dnnyQ54j-Cl0NHfQN-4061" value="9" style="rounded=0;whiteSpace=wrap;html=1;" parent="5mJC_CQfwRtNk9dnTt3o-1" vertex="1">
          <mxGeometry x="830" y="310" width="90" height="90" as="geometry" />
        </mxCell>
        <mxCell id="761dnnyQ54j-Cl0NHfQN-4062" value="4" style="rounded=0;whiteSpace=wrap;html=1;" parent="5mJC_CQfwRtNk9dnTt3o-1" vertex="1">
          <mxGeometry x="920" y="360" width="40" height="40" as="geometry" />
        </mxCell>
        <mxCell id="761dnnyQ54j-Cl0NHfQN-4063" value="36" style="rounded=0;whiteSpace=wrap;html=1;" parent="5mJC_CQfwRtNk9dnTt3o-1" vertex="1">
          <mxGeometry x="920" width="360" height="360" as="geometry" />
        </mxCell>
        <mxCell id="761dnnyQ54j-Cl0NHfQN-4064" value="31" style="rounded=0;whiteSpace=wrap;html=1;" parent="5mJC_CQfwRtNk9dnTt3o-1" vertex="1">
          <mxGeometry x="610" width="310" height="310" as="geometry" />
        </mxCell>
        <mxCell id="5mJC_CQfwRtNk9dnTt3o-2" value="" style="group;flipV=1;" vertex="1" connectable="0" parent="1">
          <mxGeometry x="2690" y="1360" width="1280" height="1020" as="geometry" />
        </mxCell>
        <mxCell id="761dnnyQ54j-Cl0NHfQN-6258" value="49" style="rounded=0;whiteSpace=wrap;html=1;" parent="5mJC_CQfwRtNk9dnTt3o-2" vertex="1">
          <mxGeometry y="530" width="490" height="490" as="geometry" />
        </mxCell>
        <mxCell id="761dnnyQ54j-Cl0NHfQN-6259" value="37" style="rounded=0;whiteSpace=wrap;html=1;" parent="5mJC_CQfwRtNk9dnTt3o-2" vertex="1">
          <mxGeometry x="490" y="650" width="370" height="370" as="geometry" />
        </mxCell>
        <mxCell id="761dnnyQ54j-Cl0NHfQN-6260" value="42" style="rounded=0;whiteSpace=wrap;html=1;" parent="5mJC_CQfwRtNk9dnTt3o-2" vertex="1">
          <mxGeometry x="860" y="600" width="420" height="420" as="geometry" />
        </mxCell>
        <mxCell id="761dnnyQ54j-Cl0NHfQN-6261" value="12" style="rounded=0;whiteSpace=wrap;html=1;" parent="5mJC_CQfwRtNk9dnTt3o-2" vertex="1">
          <mxGeometry x="490" y="530" width="120" height="120" as="geometry" />
        </mxCell>
        <mxCell id="761dnnyQ54j-Cl0NHfQN-6262" value="20" style="rounded=0;whiteSpace=wrap;html=1;" parent="5mJC_CQfwRtNk9dnTt3o-2" vertex="1">
          <mxGeometry x="610" y="450" width="200" height="200" as="geometry" />
        </mxCell>
        <mxCell id="761dnnyQ54j-Cl0NHfQN-6263" value="5" style="rounded=0;whiteSpace=wrap;html=1;" parent="5mJC_CQfwRtNk9dnTt3o-2" vertex="1">
          <mxGeometry x="810" y="600" width="50" height="50" as="geometry" />
        </mxCell>
        <mxCell id="761dnnyQ54j-Cl0NHfQN-6264" value="15" style="rounded=0;whiteSpace=wrap;html=1;" parent="5mJC_CQfwRtNk9dnTt3o-2" vertex="1">
          <mxGeometry x="810" y="450" width="150" height="150" as="geometry" />
        </mxCell>
        <mxCell id="761dnnyQ54j-Cl0NHfQN-6265" value="32" style="rounded=0;whiteSpace=wrap;html=1;" parent="5mJC_CQfwRtNk9dnTt3o-2" vertex="1">
          <mxGeometry x="960" y="280" width="320" height="320" as="geometry" />
        </mxCell>
        <mxCell id="761dnnyQ54j-Cl0NHfQN-6266" value="53" style="rounded=0;whiteSpace=wrap;html=1;" parent="5mJC_CQfwRtNk9dnTt3o-2" vertex="1">
          <mxGeometry width="530" height="530" as="geometry" />
        </mxCell>
        <mxCell id="761dnnyQ54j-Cl0NHfQN-6267" value="8" style="rounded=0;whiteSpace=wrap;html=1;" parent="5mJC_CQfwRtNk9dnTt3o-2" vertex="1">
          <mxGeometry x="530" y="450" width="80" height="80" as="geometry" />
        </mxCell>
        <mxCell id="761dnnyQ54j-Cl0NHfQN-6268" value="22" style="rounded=0;whiteSpace=wrap;html=1;" parent="5mJC_CQfwRtNk9dnTt3o-2" vertex="1">
          <mxGeometry x="530" y="230" width="220" height="220" as="geometry" />
        </mxCell>
        <mxCell id="761dnnyQ54j-Cl0NHfQN-6269" value="21" style="rounded=0;whiteSpace=wrap;html=1;" parent="5mJC_CQfwRtNk9dnTt3o-2" vertex="1">
          <mxGeometry x="750" y="240" width="210" height="210" as="geometry" />
        </mxCell>
        <mxCell id="761dnnyQ54j-Cl0NHfQN-6270" value="4" style="rounded=0;whiteSpace=wrap;html=1;" parent="5mJC_CQfwRtNk9dnTt3o-2" vertex="1">
          <mxGeometry x="960" y="240" width="40" height="40" as="geometry" />
        </mxCell>
        <mxCell id="761dnnyQ54j-Cl0NHfQN-6271" value="28" style="rounded=0;whiteSpace=wrap;html=1;" parent="5mJC_CQfwRtNk9dnTt3o-2" vertex="1">
          <mxGeometry x="1000" width="280" height="280" as="geometry" />
        </mxCell>
        <mxCell id="761dnnyQ54j-Cl0NHfQN-6272" value="1" style="rounded=0;whiteSpace=wrap;html=1;" parent="5mJC_CQfwRtNk9dnTt3o-2" vertex="1">
          <mxGeometry x="750" y="230" width="10" height="10" as="geometry" />
        </mxCell>
        <mxCell id="761dnnyQ54j-Cl0NHfQN-6273" value="24" style="rounded=0;whiteSpace=wrap;html=1;" parent="5mJC_CQfwRtNk9dnTt3o-2" vertex="1">
          <mxGeometry x="760" width="240" height="240" as="geometry" />
        </mxCell>
        <mxCell id="761dnnyQ54j-Cl0NHfQN-6274" value="23" style="rounded=0;whiteSpace=wrap;html=1;" parent="5mJC_CQfwRtNk9dnTt3o-2" vertex="1">
          <mxGeometry x="530" width="230" height="230" as="geometry" />
        </mxCell>
        <mxCell id="5mJC_CQfwRtNk9dnTt3o-3" value="" style="group;flipV=1;" vertex="1" connectable="0" parent="1">
          <mxGeometry x="2740" y="2600" width="1280" height="1190" as="geometry" />
        </mxCell>
        <mxCell id="761dnnyQ54j-Cl0NHfQN-7725" value="51" style="rounded=0;whiteSpace=wrap;html=1;" parent="5mJC_CQfwRtNk9dnTt3o-3" vertex="1">
          <mxGeometry y="680" width="510" height="510" as="geometry" />
        </mxCell>
        <mxCell id="761dnnyQ54j-Cl0NHfQN-7726" value="28" style="rounded=0;whiteSpace=wrap;html=1;" parent="5mJC_CQfwRtNk9dnTt3o-3" vertex="1">
          <mxGeometry x="510" y="910" width="280" height="280" as="geometry" />
        </mxCell>
        <mxCell id="761dnnyQ54j-Cl0NHfQN-7727" value="22" style="rounded=0;whiteSpace=wrap;html=1;" parent="5mJC_CQfwRtNk9dnTt3o-3" vertex="1">
          <mxGeometry x="790" y="970" width="220" height="220" as="geometry" />
        </mxCell>
        <mxCell id="761dnnyQ54j-Cl0NHfQN-7728" value="27" style="rounded=0;whiteSpace=wrap;html=1;" parent="5mJC_CQfwRtNk9dnTt3o-3" vertex="1">
          <mxGeometry x="1010" y="920" width="270" height="270" as="geometry" />
        </mxCell>
        <mxCell id="761dnnyQ54j-Cl0NHfQN-7729" value="17" style="rounded=0;whiteSpace=wrap;html=1;" parent="5mJC_CQfwRtNk9dnTt3o-3" vertex="1">
          <mxGeometry x="790" y="800" width="170" height="170" as="geometry" />
        </mxCell>
        <mxCell id="761dnnyQ54j-Cl0NHfQN-7730" value="5" style="rounded=0;whiteSpace=wrap;html=1;" parent="5mJC_CQfwRtNk9dnTt3o-3" vertex="1">
          <mxGeometry x="960" y="920" width="50" height="50" as="geometry" />
        </mxCell>
        <mxCell id="761dnnyQ54j-Cl0NHfQN-7731" value="10" style="rounded=0;whiteSpace=wrap;html=1;" parent="5mJC_CQfwRtNk9dnTt3o-3" vertex="1">
          <mxGeometry x="510" y="810" width="100" height="100" as="geometry" />
        </mxCell>
        <mxCell id="761dnnyQ54j-Cl0NHfQN-7732" value="7" style="rounded=0;whiteSpace=wrap;html=1;" parent="5mJC_CQfwRtNk9dnTt3o-3" vertex="1">
          <mxGeometry x="610" y="840" width="70" height="70" as="geometry" />
        </mxCell>
        <mxCell id="761dnnyQ54j-Cl0NHfQN-7733" value="11" style="rounded=0;whiteSpace=wrap;html=1;" parent="5mJC_CQfwRtNk9dnTt3o-3" vertex="1">
          <mxGeometry x="680" y="800" width="110" height="110" as="geometry" />
        </mxCell>
        <mxCell id="761dnnyQ54j-Cl0NHfQN-7734" value="3" style="rounded=0;whiteSpace=wrap;html=1;" parent="5mJC_CQfwRtNk9dnTt3o-3" vertex="1">
          <mxGeometry x="610" y="810" width="30" height="30" as="geometry" />
        </mxCell>
        <mxCell id="761dnnyQ54j-Cl0NHfQN-7735" value="4" style="rounded=0;whiteSpace=wrap;html=1;" parent="5mJC_CQfwRtNk9dnTt3o-3" vertex="1">
          <mxGeometry x="640" y="800" width="40" height="40" as="geometry" />
        </mxCell>
        <mxCell id="761dnnyQ54j-Cl0NHfQN-7736" value="13" style="rounded=0;whiteSpace=wrap;html=1;" parent="5mJC_CQfwRtNk9dnTt3o-3" vertex="1">
          <mxGeometry x="510" y="680" width="130" height="130" as="geometry" />
        </mxCell>
        <mxCell id="761dnnyQ54j-Cl0NHfQN-7737" value="32" style="rounded=0;whiteSpace=wrap;html=1;" parent="5mJC_CQfwRtNk9dnTt3o-3" vertex="1">
          <mxGeometry x="960" y="600" width="320" height="320" as="geometry" />
        </mxCell>
        <mxCell id="761dnnyQ54j-Cl0NHfQN-7738" value="12" style="rounded=0;whiteSpace=wrap;html=1;" parent="5mJC_CQfwRtNk9dnTt3o-3" vertex="1">
          <mxGeometry x="640" y="680" width="120" height="120" as="geometry" />
        </mxCell>
        <mxCell id="761dnnyQ54j-Cl0NHfQN-7739" value="20" style="rounded=0;whiteSpace=wrap;html=1;" parent="5mJC_CQfwRtNk9dnTt3o-3" vertex="1">
          <mxGeometry x="760" y="600" width="200" height="200" as="geometry" />
        </mxCell>
        <mxCell id="761dnnyQ54j-Cl0NHfQN-7740" value="68" style="rounded=0;whiteSpace=wrap;html=1;" parent="5mJC_CQfwRtNk9dnTt3o-3" vertex="1">
          <mxGeometry width="680" height="680" as="geometry" />
        </mxCell>
        <mxCell id="761dnnyQ54j-Cl0NHfQN-7741" value="8" style="rounded=0;whiteSpace=wrap;html=1;" parent="5mJC_CQfwRtNk9dnTt3o-3" vertex="1">
          <mxGeometry x="680" y="600" width="80" height="80" as="geometry" />
        </mxCell>
        <mxCell id="761dnnyQ54j-Cl0NHfQN-7742" value="60" style="rounded=0;whiteSpace=wrap;html=1;" parent="5mJC_CQfwRtNk9dnTt3o-3" vertex="1">
          <mxGeometry x="680" width="600" height="600" as="geometry" />
        </mxCell>
        <mxCell id="5mJC_CQfwRtNk9dnTt3o-4" value="" style="group;flipV=1;" vertex="1" connectable="0" parent="1">
          <mxGeometry x="2760" y="4000" width="1280" height="830" as="geometry" />
        </mxCell>
        <mxCell id="761dnnyQ54j-Cl0NHfQN-7820" value="36" style="rounded=0;whiteSpace=wrap;html=1;" parent="5mJC_CQfwRtNk9dnTt3o-4" vertex="1">
          <mxGeometry y="470" width="360" height="360" as="geometry" />
        </mxCell>
        <mxCell id="761dnnyQ54j-Cl0NHfQN-7821" value="25" style="rounded=0;whiteSpace=wrap;html=1;" parent="5mJC_CQfwRtNk9dnTt3o-4" vertex="1">
          <mxGeometry x="360" y="580" width="250" height="250" as="geometry" />
        </mxCell>
        <mxCell id="761dnnyQ54j-Cl0NHfQN-7822" value="39" style="rounded=0;whiteSpace=wrap;html=1;" parent="5mJC_CQfwRtNk9dnTt3o-4" vertex="1">
          <mxGeometry x="610" y="440" width="390" height="390" as="geometry" />
        </mxCell>
        <mxCell id="761dnnyQ54j-Cl0NHfQN-7823" value="11" style="rounded=0;whiteSpace=wrap;html=1;" parent="5mJC_CQfwRtNk9dnTt3o-4" vertex="1">
          <mxGeometry x="360" y="470" width="110" height="110" as="geometry" />
        </mxCell>
        <mxCell id="761dnnyQ54j-Cl0NHfQN-7824" value="14" style="rounded=0;whiteSpace=wrap;html=1;" parent="5mJC_CQfwRtNk9dnTt3o-4" vertex="1">
          <mxGeometry x="470" y="440" width="140" height="140" as="geometry" />
        </mxCell>
        <mxCell id="761dnnyQ54j-Cl0NHfQN-7825" value="28" style="rounded=0;whiteSpace=wrap;html=1;" parent="5mJC_CQfwRtNk9dnTt3o-4" vertex="1">
          <mxGeometry x="1000" y="550" width="280" height="280" as="geometry" />
        </mxCell>
        <mxCell id="761dnnyQ54j-Cl0NHfQN-7826" value="12" style="rounded=0;whiteSpace=wrap;html=1;" parent="5mJC_CQfwRtNk9dnTt3o-4" vertex="1">
          <mxGeometry x="1000" y="430" width="120" height="120" as="geometry" />
        </mxCell>
        <mxCell id="761dnnyQ54j-Cl0NHfQN-7827" value="16" style="rounded=0;whiteSpace=wrap;html=1;" parent="5mJC_CQfwRtNk9dnTt3o-4" vertex="1">
          <mxGeometry x="1120" y="390" width="160" height="160" as="geometry" />
        </mxCell>
        <mxCell id="761dnnyQ54j-Cl0NHfQN-7828" value="47" style="rounded=0;whiteSpace=wrap;html=1;" parent="5mJC_CQfwRtNk9dnTt3o-4" vertex="1">
          <mxGeometry width="470" height="470" as="geometry" />
        </mxCell>
        <mxCell id="761dnnyQ54j-Cl0NHfQN-7829" value="44" style="rounded=0;whiteSpace=wrap;html=1;" parent="5mJC_CQfwRtNk9dnTt3o-4" vertex="1">
          <mxGeometry x="470" width="440" height="440" as="geometry" />
        </mxCell>
        <mxCell id="761dnnyQ54j-Cl0NHfQN-7830" value="9" style="rounded=0;whiteSpace=wrap;html=1;" parent="5mJC_CQfwRtNk9dnTt3o-4" vertex="1">
          <mxGeometry x="910" y="350" width="90" height="90" as="geometry" />
        </mxCell>
        <mxCell id="761dnnyQ54j-Cl0NHfQN-7831" value="8" style="rounded=0;whiteSpace=wrap;html=1;" parent="5mJC_CQfwRtNk9dnTt3o-4" vertex="1">
          <mxGeometry x="1000" y="350" width="80" height="80" as="geometry" />
        </mxCell>
        <mxCell id="761dnnyQ54j-Cl0NHfQN-7832" value="4" style="rounded=0;whiteSpace=wrap;html=1;" parent="5mJC_CQfwRtNk9dnTt3o-4" vertex="1">
          <mxGeometry x="1080" y="390" width="40" height="40" as="geometry" />
        </mxCell>
        <mxCell id="761dnnyQ54j-Cl0NHfQN-7833" value="20" style="rounded=0;whiteSpace=wrap;html=1;" parent="5mJC_CQfwRtNk9dnTt3o-4" vertex="1">
          <mxGeometry x="1080" y="190" width="200" height="200" as="geometry" />
        </mxCell>
        <mxCell id="761dnnyQ54j-Cl0NHfQN-7834" value="17" style="rounded=0;whiteSpace=wrap;html=1;" parent="5mJC_CQfwRtNk9dnTt3o-4" vertex="1">
          <mxGeometry x="910" y="180" width="170" height="170" as="geometry" />
        </mxCell>
        <mxCell id="761dnnyQ54j-Cl0NHfQN-7835" value="1" style="rounded=0;whiteSpace=wrap;html=1;" parent="5mJC_CQfwRtNk9dnTt3o-4" vertex="1">
          <mxGeometry x="1080" y="180" width="10" height="10" as="geometry" />
        </mxCell>
        <mxCell id="761dnnyQ54j-Cl0NHfQN-7836" value="19" style="rounded=0;whiteSpace=wrap;html=1;" parent="5mJC_CQfwRtNk9dnTt3o-4" vertex="1">
          <mxGeometry x="1090" width="190" height="190" as="geometry" />
        </mxCell>
        <mxCell id="761dnnyQ54j-Cl0NHfQN-7837" value="18" style="rounded=0;whiteSpace=wrap;html=1;" parent="5mJC_CQfwRtNk9dnTt3o-4" vertex="1">
          <mxGeometry x="910" width="180" height="180" as="geometry" />
        </mxCell>
        <mxCell id="5mJC_CQfwRtNk9dnTt3o-5" value="" style="group;flipV=1;" vertex="1" connectable="0" parent="1">
          <mxGeometry x="2730" y="5030" width="1280" height="880" as="geometry" />
        </mxCell>
        <mxCell id="761dnnyQ54j-Cl0NHfQN-16662" value="37" style="rounded=0;whiteSpace=wrap;html=1;" parent="5mJC_CQfwRtNk9dnTt3o-5" vertex="1">
          <mxGeometry y="510" width="370" height="370" as="geometry" />
        </mxCell>
        <mxCell id="761dnnyQ54j-Cl0NHfQN-16663" value="26" style="rounded=0;whiteSpace=wrap;html=1;" parent="5mJC_CQfwRtNk9dnTt3o-5" vertex="1">
          <mxGeometry x="370" y="620" width="260" height="260" as="geometry" />
        </mxCell>
        <mxCell id="761dnnyQ54j-Cl0NHfQN-16664" value="23" style="rounded=0;whiteSpace=wrap;html=1;" parent="5mJC_CQfwRtNk9dnTt3o-5" vertex="1">
          <mxGeometry x="630" y="650" width="230" height="230" as="geometry" />
        </mxCell>
        <mxCell id="761dnnyQ54j-Cl0NHfQN-16665" value="42" style="rounded=0;whiteSpace=wrap;html=1;" parent="5mJC_CQfwRtNk9dnTt3o-5" vertex="1">
          <mxGeometry x="860" y="460" width="420" height="420" as="geometry" />
        </mxCell>
        <mxCell id="761dnnyQ54j-Cl0NHfQN-16666" value="4" style="rounded=0;whiteSpace=wrap;html=1;" parent="5mJC_CQfwRtNk9dnTt3o-5" vertex="1">
          <mxGeometry x="630" y="610" width="40" height="40" as="geometry" />
        </mxCell>
        <mxCell id="761dnnyQ54j-Cl0NHfQN-16667" value="19" style="rounded=0;whiteSpace=wrap;html=1;" parent="5mJC_CQfwRtNk9dnTt3o-5" vertex="1">
          <mxGeometry x="670" y="460" width="190" height="190" as="geometry" />
        </mxCell>
        <mxCell id="761dnnyQ54j-Cl0NHfQN-16668" value="11" style="rounded=0;whiteSpace=wrap;html=1;" parent="5mJC_CQfwRtNk9dnTt3o-5" vertex="1">
          <mxGeometry x="370" y="510" width="110" height="110" as="geometry" />
        </mxCell>
        <mxCell id="761dnnyQ54j-Cl0NHfQN-16669" value="8" style="rounded=0;whiteSpace=wrap;html=1;" parent="5mJC_CQfwRtNk9dnTt3o-5" vertex="1">
          <mxGeometry x="480" y="540" width="80" height="80" as="geometry" />
        </mxCell>
        <mxCell id="761dnnyQ54j-Cl0NHfQN-16670" value="6" style="rounded=0;whiteSpace=wrap;html=1;" parent="5mJC_CQfwRtNk9dnTt3o-5" vertex="1">
          <mxGeometry x="560" y="560" width="60" height="60" as="geometry" />
        </mxCell>
        <mxCell id="761dnnyQ54j-Cl0NHfQN-16671" value="1" style="rounded=0;whiteSpace=wrap;html=1;" parent="5mJC_CQfwRtNk9dnTt3o-5" vertex="1">
          <mxGeometry x="620" y="610" width="10" height="10" as="geometry" />
        </mxCell>
        <mxCell id="761dnnyQ54j-Cl0NHfQN-16672" value="5" style="rounded=0;whiteSpace=wrap;html=1;" parent="5mJC_CQfwRtNk9dnTt3o-5" vertex="1">
          <mxGeometry x="620" y="560" width="50" height="50" as="geometry" />
        </mxCell>
        <mxCell id="761dnnyQ54j-Cl0NHfQN-16673" value="2" style="rounded=0;whiteSpace=wrap;html=1;" parent="5mJC_CQfwRtNk9dnTt3o-5" vertex="1">
          <mxGeometry x="560" y="540" width="20" height="20" as="geometry" />
        </mxCell>
        <mxCell id="761dnnyQ54j-Cl0NHfQN-16674" value="9" style="rounded=0;whiteSpace=wrap;html=1;" parent="5mJC_CQfwRtNk9dnTt3o-5" vertex="1">
          <mxGeometry x="580" y="470" width="90" height="90" as="geometry" />
        </mxCell>
        <mxCell id="761dnnyQ54j-Cl0NHfQN-16675" value="3" style="rounded=0;whiteSpace=wrap;html=1;" parent="5mJC_CQfwRtNk9dnTt3o-5" vertex="1">
          <mxGeometry x="480" y="510" width="30" height="30" as="geometry" />
        </mxCell>
        <mxCell id="761dnnyQ54j-Cl0NHfQN-16676" value="7" style="rounded=0;whiteSpace=wrap;html=1;" parent="5mJC_CQfwRtNk9dnTt3o-5" vertex="1">
          <mxGeometry x="510" y="470" width="70" height="70" as="geometry" />
        </mxCell>
        <mxCell id="761dnnyQ54j-Cl0NHfQN-16677" value="51" style="rounded=0;whiteSpace=wrap;html=1;" parent="5mJC_CQfwRtNk9dnTt3o-5" vertex="1">
          <mxGeometry width="510" height="510" as="geometry" />
        </mxCell>
        <mxCell id="761dnnyQ54j-Cl0NHfQN-16678" value="16" style="rounded=0;whiteSpace=wrap;html=1;" parent="5mJC_CQfwRtNk9dnTt3o-5" vertex="1">
          <mxGeometry x="510" y="310" width="160" height="160" as="geometry" />
        </mxCell>
        <mxCell id="761dnnyQ54j-Cl0NHfQN-16679" value="15" style="rounded=0;whiteSpace=wrap;html=1;" parent="5mJC_CQfwRtNk9dnTt3o-5" vertex="1">
          <mxGeometry x="670" y="310" width="150" height="150" as="geometry" />
        </mxCell>
        <mxCell id="761dnnyQ54j-Cl0NHfQN-16680" value="46" style="rounded=0;whiteSpace=wrap;html=1;" parent="5mJC_CQfwRtNk9dnTt3o-5" vertex="1">
          <mxGeometry x="820" width="460" height="460" as="geometry" />
        </mxCell>
        <mxCell id="761dnnyQ54j-Cl0NHfQN-16681" value="31" style="rounded=0;whiteSpace=wrap;html=1;" parent="5mJC_CQfwRtNk9dnTt3o-5" vertex="1">
          <mxGeometry x="510" width="310" height="310" as="geometry" />
        </mxCell>
        <mxCell id="5mJC_CQfwRtNk9dnTt3o-6" value="" style="group;flipV=1;" vertex="1" connectable="0" parent="1">
          <mxGeometry x="2720" y="6060" width="1280" height="1060" as="geometry" />
        </mxCell>
        <mxCell id="761dnnyQ54j-Cl0NHfQN-38892" value="43" style="rounded=0;whiteSpace=wrap;html=1;" parent="5mJC_CQfwRtNk9dnTt3o-6" vertex="1">
          <mxGeometry y="630" width="430" height="430" as="geometry" />
        </mxCell>
        <mxCell id="761dnnyQ54j-Cl0NHfQN-38893" value="25" style="rounded=0;whiteSpace=wrap;html=1;" parent="5mJC_CQfwRtNk9dnTt3o-6" vertex="1">
          <mxGeometry x="430" y="810" width="250" height="250" as="geometry" />
        </mxCell>
        <mxCell id="761dnnyQ54j-Cl0NHfQN-38894" value="23" style="rounded=0;whiteSpace=wrap;html=1;" parent="5mJC_CQfwRtNk9dnTt3o-6" vertex="1">
          <mxGeometry x="680" y="830" width="230" height="230" as="geometry" />
        </mxCell>
        <mxCell id="761dnnyQ54j-Cl0NHfQN-38895" value="37" style="rounded=0;whiteSpace=wrap;html=1;" parent="5mJC_CQfwRtNk9dnTt3o-6" vertex="1">
          <mxGeometry x="910" y="690" width="370" height="370" as="geometry" />
        </mxCell>
        <mxCell id="761dnnyQ54j-Cl0NHfQN-38896" value="9" style="rounded=0;whiteSpace=wrap;html=1;" parent="5mJC_CQfwRtNk9dnTt3o-6" vertex="1">
          <mxGeometry x="680" y="740" width="90" height="90" as="geometry" />
        </mxCell>
        <mxCell id="761dnnyQ54j-Cl0NHfQN-38897" value="14" style="rounded=0;whiteSpace=wrap;html=1;" parent="5mJC_CQfwRtNk9dnTt3o-6" vertex="1">
          <mxGeometry x="770" y="690" width="140" height="140" as="geometry" />
        </mxCell>
        <mxCell id="761dnnyQ54j-Cl0NHfQN-38898" value="18" style="rounded=0;whiteSpace=wrap;html=1;" parent="5mJC_CQfwRtNk9dnTt3o-6" vertex="1">
          <mxGeometry x="430" y="630" width="180" height="180" as="geometry" />
        </mxCell>
        <mxCell id="761dnnyQ54j-Cl0NHfQN-38899" value="7" style="rounded=0;whiteSpace=wrap;html=1;" parent="5mJC_CQfwRtNk9dnTt3o-6" vertex="1">
          <mxGeometry x="610" y="740" width="70" height="70" as="geometry" />
        </mxCell>
        <mxCell id="761dnnyQ54j-Cl0NHfQN-38900" value="11" style="rounded=0;whiteSpace=wrap;html=1;" parent="5mJC_CQfwRtNk9dnTt3o-6" vertex="1">
          <mxGeometry x="610" y="630" width="110" height="110" as="geometry" />
        </mxCell>
        <mxCell id="761dnnyQ54j-Cl0NHfQN-38901" value="5" style="rounded=0;whiteSpace=wrap;html=1;" parent="5mJC_CQfwRtNk9dnTt3o-6" vertex="1">
          <mxGeometry x="720" y="690" width="50" height="50" as="geometry" />
        </mxCell>
        <mxCell id="761dnnyQ54j-Cl0NHfQN-38902" value="6" style="rounded=0;whiteSpace=wrap;html=1;" parent="5mJC_CQfwRtNk9dnTt3o-6" vertex="1">
          <mxGeometry x="720" y="630" width="60" height="60" as="geometry" />
        </mxCell>
        <mxCell id="761dnnyQ54j-Cl0NHfQN-38903" value="17" style="rounded=0;whiteSpace=wrap;html=1;" parent="5mJC_CQfwRtNk9dnTt3o-6" vertex="1">
          <mxGeometry x="780" y="520" width="170" height="170" as="geometry" />
        </mxCell>
        <mxCell id="761dnnyQ54j-Cl0NHfQN-38904" value="33" style="rounded=0;whiteSpace=wrap;html=1;" parent="5mJC_CQfwRtNk9dnTt3o-6" vertex="1">
          <mxGeometry x="950" y="360" width="330" height="330" as="geometry" />
        </mxCell>
        <mxCell id="761dnnyQ54j-Cl0NHfQN-38905" value="63" style="rounded=0;whiteSpace=wrap;html=1;" parent="5mJC_CQfwRtNk9dnTt3o-6" vertex="1">
          <mxGeometry width="630" height="630" as="geometry" />
        </mxCell>
        <mxCell id="761dnnyQ54j-Cl0NHfQN-38906" value="15" style="rounded=0;whiteSpace=wrap;html=1;" parent="5mJC_CQfwRtNk9dnTt3o-6" vertex="1">
          <mxGeometry x="630" y="480" width="150" height="150" as="geometry" />
        </mxCell>
        <mxCell id="761dnnyQ54j-Cl0NHfQN-38907" value="4" style="rounded=0;whiteSpace=wrap;html=1;" parent="5mJC_CQfwRtNk9dnTt3o-6" vertex="1">
          <mxGeometry x="780" y="480" width="40" height="40" as="geometry" />
        </mxCell>
        <mxCell id="761dnnyQ54j-Cl0NHfQN-38908" value="13" style="rounded=0;whiteSpace=wrap;html=1;" parent="5mJC_CQfwRtNk9dnTt3o-6" vertex="1">
          <mxGeometry x="820" y="390" width="130" height="130" as="geometry" />
        </mxCell>
        <mxCell id="761dnnyQ54j-Cl0NHfQN-38909" value="19" style="rounded=0;whiteSpace=wrap;html=1;" parent="5mJC_CQfwRtNk9dnTt3o-6" vertex="1">
          <mxGeometry x="630" y="290" width="190" height="190" as="geometry" />
        </mxCell>
        <mxCell id="761dnnyQ54j-Cl0NHfQN-38910" value="10" style="rounded=0;whiteSpace=wrap;html=1;" parent="5mJC_CQfwRtNk9dnTt3o-6" vertex="1">
          <mxGeometry x="820" y="290" width="100" height="100" as="geometry" />
        </mxCell>
        <mxCell id="761dnnyQ54j-Cl0NHfQN-38911" value="3" style="rounded=0;whiteSpace=wrap;html=1;" parent="5mJC_CQfwRtNk9dnTt3o-6" vertex="1">
          <mxGeometry x="920" y="360" width="30" height="30" as="geometry" />
        </mxCell>
        <mxCell id="761dnnyQ54j-Cl0NHfQN-38912" value="36" style="rounded=0;whiteSpace=wrap;html=1;" parent="5mJC_CQfwRtNk9dnTt3o-6" vertex="1">
          <mxGeometry x="920" width="360" height="360" as="geometry" />
        </mxCell>
        <mxCell id="761dnnyQ54j-Cl0NHfQN-38913" value="29" style="rounded=0;whiteSpace=wrap;html=1;" parent="5mJC_CQfwRtNk9dnTt3o-6" vertex="1">
          <mxGeometry x="630" width="290" height="290" as="geometry" />
        </mxCell>
        <mxCell id="5mJC_CQfwRtNk9dnTt3o-7" value="" style="group;flipV=1;" vertex="1" connectable="0" parent="1">
          <mxGeometry x="2740" y="7280" width="1280" height="1220" as="geometry" />
        </mxCell>
        <mxCell id="761dnnyQ54j-Cl0NHfQN-38938" value="39" style="rounded=0;whiteSpace=wrap;html=1;" parent="5mJC_CQfwRtNk9dnTt3o-7" vertex="1">
          <mxGeometry y="830" width="390" height="390" as="geometry" />
        </mxCell>
        <mxCell id="761dnnyQ54j-Cl0NHfQN-38939" value="42" style="rounded=0;whiteSpace=wrap;html=1;" parent="5mJC_CQfwRtNk9dnTt3o-7" vertex="1">
          <mxGeometry x="390" y="800" width="420" height="420" as="geometry" />
        </mxCell>
        <mxCell id="761dnnyQ54j-Cl0NHfQN-38940" value="28" style="rounded=0;whiteSpace=wrap;html=1;" parent="5mJC_CQfwRtNk9dnTt3o-7" vertex="1">
          <mxGeometry y="550" width="280" height="280" as="geometry" />
        </mxCell>
        <mxCell id="761dnnyQ54j-Cl0NHfQN-38941" value="11" style="rounded=0;whiteSpace=wrap;html=1;" parent="5mJC_CQfwRtNk9dnTt3o-7" vertex="1">
          <mxGeometry x="280" y="720" width="110" height="110" as="geometry" />
        </mxCell>
        <mxCell id="761dnnyQ54j-Cl0NHfQN-38942" value="47" style="rounded=0;whiteSpace=wrap;html=1;" parent="5mJC_CQfwRtNk9dnTt3o-7" vertex="1">
          <mxGeometry x="810" y="750" width="470" height="470" as="geometry" />
        </mxCell>
        <mxCell id="761dnnyQ54j-Cl0NHfQN-38943" value="12" style="rounded=0;whiteSpace=wrap;html=1;" parent="5mJC_CQfwRtNk9dnTt3o-7" vertex="1">
          <mxGeometry x="390" y="680" width="120" height="120" as="geometry" />
        </mxCell>
        <mxCell id="761dnnyQ54j-Cl0NHfQN-38944" value="7" style="rounded=0;whiteSpace=wrap;html=1;" parent="5mJC_CQfwRtNk9dnTt3o-7" vertex="1">
          <mxGeometry x="280" y="650" width="70" height="70" as="geometry" />
        </mxCell>
        <mxCell id="761dnnyQ54j-Cl0NHfQN-38945" value="4" style="rounded=0;whiteSpace=wrap;html=1;" parent="5mJC_CQfwRtNk9dnTt3o-7" vertex="1">
          <mxGeometry x="350" y="680" width="40" height="40" as="geometry" />
        </mxCell>
        <mxCell id="761dnnyQ54j-Cl0NHfQN-38946" value="25" style="rounded=0;whiteSpace=wrap;html=1;" parent="5mJC_CQfwRtNk9dnTt3o-7" vertex="1">
          <mxGeometry x="510" y="550" width="250" height="250" as="geometry" />
        </mxCell>
        <mxCell id="761dnnyQ54j-Cl0NHfQN-38947" value="5" style="rounded=0;whiteSpace=wrap;html=1;" parent="5mJC_CQfwRtNk9dnTt3o-7" vertex="1">
          <mxGeometry x="760" y="750" width="50" height="50" as="geometry" />
        </mxCell>
        <mxCell id="761dnnyQ54j-Cl0NHfQN-38948" value="3" style="rounded=0;whiteSpace=wrap;html=1;" parent="5mJC_CQfwRtNk9dnTt3o-7" vertex="1">
          <mxGeometry x="350" y="650" width="30" height="30" as="geometry" />
        </mxCell>
        <mxCell id="761dnnyQ54j-Cl0NHfQN-38949" value="13" style="rounded=0;whiteSpace=wrap;html=1;" parent="5mJC_CQfwRtNk9dnTt3o-7" vertex="1">
          <mxGeometry x="380" y="550" width="130" height="130" as="geometry" />
        </mxCell>
        <mxCell id="761dnnyQ54j-Cl0NHfQN-38950" value="10" style="rounded=0;whiteSpace=wrap;html=1;" parent="5mJC_CQfwRtNk9dnTt3o-7" vertex="1">
          <mxGeometry x="280" y="550" width="100" height="100" as="geometry" />
        </mxCell>
        <mxCell id="761dnnyQ54j-Cl0NHfQN-38951" value="18" style="rounded=0;whiteSpace=wrap;html=1;" parent="5mJC_CQfwRtNk9dnTt3o-7" vertex="1">
          <mxGeometry x="760" y="570" width="180" height="180" as="geometry" />
        </mxCell>
        <mxCell id="761dnnyQ54j-Cl0NHfQN-38952" value="34" style="rounded=0;whiteSpace=wrap;html=1;" parent="5mJC_CQfwRtNk9dnTt3o-7" vertex="1">
          <mxGeometry x="940" y="410" width="340" height="340" as="geometry" />
        </mxCell>
        <mxCell id="761dnnyQ54j-Cl0NHfQN-38953" value="2" style="rounded=0;whiteSpace=wrap;html=1;" parent="5mJC_CQfwRtNk9dnTt3o-7" vertex="1">
          <mxGeometry x="760" y="550" width="20" height="20" as="geometry" />
        </mxCell>
        <mxCell id="761dnnyQ54j-Cl0NHfQN-38954" value="16" style="rounded=0;whiteSpace=wrap;html=1;" parent="5mJC_CQfwRtNk9dnTt3o-7" vertex="1">
          <mxGeometry x="780" y="410" width="160" height="160" as="geometry" />
        </mxCell>
        <mxCell id="761dnnyQ54j-Cl0NHfQN-38955" value="55" style="rounded=0;whiteSpace=wrap;html=1;" parent="5mJC_CQfwRtNk9dnTt3o-7" vertex="1">
          <mxGeometry width="550" height="550" as="geometry" />
        </mxCell>
        <mxCell id="761dnnyQ54j-Cl0NHfQN-38956" value="23" style="rounded=0;whiteSpace=wrap;html=1;" parent="5mJC_CQfwRtNk9dnTt3o-7" vertex="1">
          <mxGeometry x="550" y="320" width="230" height="230" as="geometry" />
        </mxCell>
        <mxCell id="761dnnyQ54j-Cl0NHfQN-38957" value="9" style="rounded=0;whiteSpace=wrap;html=1;" parent="5mJC_CQfwRtNk9dnTt3o-7" vertex="1">
          <mxGeometry x="780" y="320" width="90" height="90" as="geometry" />
        </mxCell>
        <mxCell id="761dnnyQ54j-Cl0NHfQN-38958" value="41" style="rounded=0;whiteSpace=wrap;html=1;" parent="5mJC_CQfwRtNk9dnTt3o-7" vertex="1">
          <mxGeometry x="870" width="410" height="410" as="geometry" />
        </mxCell>
        <mxCell id="761dnnyQ54j-Cl0NHfQN-38959" value="32" style="rounded=0;whiteSpace=wrap;html=1;" parent="5mJC_CQfwRtNk9dnTt3o-7" vertex="1">
          <mxGeometry x="550" width="320" height="320" as="geometry" />
        </mxCell>
        <mxCell id="5mJC_CQfwRtNk9dnTt3o-8" value="" style="group;flipV=1;" vertex="1" connectable="0" parent="1">
          <mxGeometry x="2730" y="8670" width="1280" height="1050" as="geometry" />
        </mxCell>
        <mxCell id="761dnnyQ54j-Cl0NHfQN-44098" value="24" style="rounded=0;whiteSpace=wrap;html=1;" parent="5mJC_CQfwRtNk9dnTt3o-8" vertex="1">
          <mxGeometry y="810" width="240" height="240" as="geometry" />
        </mxCell>
        <mxCell id="761dnnyQ54j-Cl0NHfQN-44099" value="16" style="rounded=0;whiteSpace=wrap;html=1;" parent="5mJC_CQfwRtNk9dnTt3o-8" vertex="1">
          <mxGeometry x="240" y="890" width="160" height="160" as="geometry" />
        </mxCell>
        <mxCell id="761dnnyQ54j-Cl0NHfQN-44100" value="14" style="rounded=0;whiteSpace=wrap;html=1;" parent="5mJC_CQfwRtNk9dnTt3o-8" vertex="1">
          <mxGeometry x="400" y="910" width="140" height="140" as="geometry" />
        </mxCell>
        <mxCell id="761dnnyQ54j-Cl0NHfQN-44101" value="40" style="rounded=0;whiteSpace=wrap;html=1;" parent="5mJC_CQfwRtNk9dnTt3o-8" vertex="1">
          <mxGeometry x="540" y="650" width="400" height="400" as="geometry" />
        </mxCell>
        <mxCell id="761dnnyQ54j-Cl0NHfQN-44102" value="2" style="rounded=0;whiteSpace=wrap;html=1;" parent="5mJC_CQfwRtNk9dnTt3o-8" vertex="1">
          <mxGeometry x="400" y="890" width="20" height="20" as="geometry" />
        </mxCell>
        <mxCell id="761dnnyQ54j-Cl0NHfQN-44103" value="12" style="rounded=0;whiteSpace=wrap;html=1;" parent="5mJC_CQfwRtNk9dnTt3o-8" vertex="1">
          <mxGeometry x="420" y="790" width="120" height="120" as="geometry" />
        </mxCell>
        <mxCell id="761dnnyQ54j-Cl0NHfQN-44104" value="8" style="rounded=0;whiteSpace=wrap;html=1;" parent="5mJC_CQfwRtNk9dnTt3o-8" vertex="1">
          <mxGeometry x="240" y="810" width="80" height="80" as="geometry" />
        </mxCell>
        <mxCell id="761dnnyQ54j-Cl0NHfQN-44105" value="10" style="rounded=0;whiteSpace=wrap;html=1;" parent="5mJC_CQfwRtNk9dnTt3o-8" vertex="1">
          <mxGeometry x="320" y="790" width="100" height="100" as="geometry" />
        </mxCell>
        <mxCell id="761dnnyQ54j-Cl0NHfQN-44106" value="32" style="rounded=0;whiteSpace=wrap;html=1;" parent="5mJC_CQfwRtNk9dnTt3o-8" vertex="1">
          <mxGeometry y="490" width="320" height="320" as="geometry" />
        </mxCell>
        <mxCell id="761dnnyQ54j-Cl0NHfQN-44107" value="13" style="rounded=0;whiteSpace=wrap;html=1;" parent="5mJC_CQfwRtNk9dnTt3o-8" vertex="1">
          <mxGeometry x="320" y="660" width="130" height="130" as="geometry" />
        </mxCell>
        <mxCell id="761dnnyQ54j-Cl0NHfQN-44108" value="9" style="rounded=0;whiteSpace=wrap;html=1;" parent="5mJC_CQfwRtNk9dnTt3o-8" vertex="1">
          <mxGeometry x="450" y="700" width="90" height="90" as="geometry" />
        </mxCell>
        <mxCell id="761dnnyQ54j-Cl0NHfQN-44109" value="4" style="rounded=0;whiteSpace=wrap;html=1;" parent="5mJC_CQfwRtNk9dnTt3o-8" vertex="1">
          <mxGeometry x="450" y="660" width="40" height="40" as="geometry" />
        </mxCell>
        <mxCell id="761dnnyQ54j-Cl0NHfQN-44110" value="5" style="rounded=0;whiteSpace=wrap;html=1;" parent="5mJC_CQfwRtNk9dnTt3o-8" vertex="1">
          <mxGeometry x="490" y="650" width="50" height="50" as="geometry" />
        </mxCell>
        <mxCell id="761dnnyQ54j-Cl0NHfQN-44111" value="17" style="rounded=0;whiteSpace=wrap;html=1;" parent="5mJC_CQfwRtNk9dnTt3o-8" vertex="1">
          <mxGeometry x="320" y="490" width="170" height="170" as="geometry" />
        </mxCell>
        <mxCell id="761dnnyQ54j-Cl0NHfQN-44112" value="34" style="rounded=0;whiteSpace=wrap;html=1;" parent="5mJC_CQfwRtNk9dnTt3o-8" vertex="1">
          <mxGeometry x="940" y="710" width="340" height="340" as="geometry" />
        </mxCell>
        <mxCell id="761dnnyQ54j-Cl0NHfQN-44113" value="6" style="rounded=0;whiteSpace=wrap;html=1;" parent="5mJC_CQfwRtNk9dnTt3o-8" vertex="1">
          <mxGeometry x="940" y="650" width="60" height="60" as="geometry" />
        </mxCell>
        <mxCell id="761dnnyQ54j-Cl0NHfQN-44114" value="28" style="rounded=0;whiteSpace=wrap;html=1;" parent="5mJC_CQfwRtNk9dnTt3o-8" vertex="1">
          <mxGeometry x="1000" y="430" width="280" height="280" as="geometry" />
        </mxCell>
        <mxCell id="761dnnyQ54j-Cl0NHfQN-44115" value="29" style="rounded=0;whiteSpace=wrap;html=1;" parent="5mJC_CQfwRtNk9dnTt3o-8" vertex="1">
          <mxGeometry x="490" y="360" width="290" height="290" as="geometry" />
        </mxCell>
        <mxCell id="761dnnyQ54j-Cl0NHfQN-44116" value="22" style="rounded=0;whiteSpace=wrap;html=1;" parent="5mJC_CQfwRtNk9dnTt3o-8" vertex="1">
          <mxGeometry x="780" y="430" width="220" height="220" as="geometry" />
        </mxCell>
        <mxCell id="761dnnyQ54j-Cl0NHfQN-44117" value="49" style="rounded=0;whiteSpace=wrap;html=1;" parent="5mJC_CQfwRtNk9dnTt3o-8" vertex="1">
          <mxGeometry width="490" height="490" as="geometry" />
        </mxCell>
        <mxCell id="761dnnyQ54j-Cl0NHfQN-44118" value="7" style="rounded=0;whiteSpace=wrap;html=1;" parent="5mJC_CQfwRtNk9dnTt3o-8" vertex="1">
          <mxGeometry x="780" y="360" width="70" height="70" as="geometry" />
        </mxCell>
        <mxCell id="761dnnyQ54j-Cl0NHfQN-44119" value="43" style="rounded=0;whiteSpace=wrap;html=1;" parent="5mJC_CQfwRtNk9dnTt3o-8" vertex="1">
          <mxGeometry x="850" width="430" height="430" as="geometry" />
        </mxCell>
        <mxCell id="761dnnyQ54j-Cl0NHfQN-44120" value="36" style="rounded=0;whiteSpace=wrap;html=1;" parent="5mJC_CQfwRtNk9dnTt3o-8" vertex="1">
          <mxGeometry x="490" width="360" height="360" as="geometry" />
        </mxCell>
      </root>
    </mxGraphModel>
  </diagram>
</mxfile>
